# AST/ASF file generated using VICON BodyLanguage
# -----------------------------------------------
:version 1.10
:name VICON
:units
  mass 1.0
  length 0.45
  angle deg
:documentation
   .ast/.asf automatically generated from VICON data using
   VICON BodyBuilder and BodyLanguage model FoxedUp or BRILLIANT.MOD
:root
   order TX TY TZ RX RY RZ
   axis XYZ
   position 0 0 0  
   orientation 0 0 0 
:bonedata
  begin
     id 1 
     name lhipjoint
     direction 0.547975 -0.797114 0.253638 
     length 2.36201 
     axis 0 0 0  XYZ
  end
  begin
     id 2 
     name lfemur
     direction 0.34202 -0.939693 0  
     length 7.69075  
     axis 0 0 20  XYZ
    dof rx ry rz
    limits (-160.0 20.0)
           (-70.0 70.0)
           (-60.0 70.0)
  end
  begin
     id 3 
     name ltibia
     direction 0.34202 -0.939693 0   
     length 7.91399   
     axis 0 0 20   XYZ
    dof rx
    limits (-10.0 170.0)
  end
  begin
     id 4 
     name lfoot
     direction 0.0705293 -0.193778 0.978507   
     length 2.13618   
     axis -90 7.62852e-016 20   XYZ
    dof rx rz
    limits (-45.0 90.0)
           (-70.0 20.0)
  end
  begin
     id 5 
     name ltoes
     direction 1.53592e-011 -4.21925e-011 1   
     length 1.07518   
     axis -90 7.62852e-016 20   XYZ
    dof rx
    limits (-90.0 20.0)
  end
  begin
     id 6 
     name rhipjoint
     direction -0.57 -0.782963 0.249136   
     length 2.4047  
     axis 0 0 0  XYZ 
  end
  begin
     id 7 
     name rfemur
     direction -0.34202 -0.939693 0   
     length 7.51486   
     axis 0 0 -20   XYZ
    dof rx ry rz
    limits (-160.0 20.0)
           (-70.0 70.0)
           (-70.0 60.0)
  end
  begin
     id 8 
     name rtibia
     direction -0.34202 -0.939693 0   
     length 8.08317   
     axis 0 0 -20   XYZ
    dof rx
    limits (-10.0 170.0)
 end
 begin
     id 9 
     name rfoot
     direction -0.104954 -0.281256 0.953876   
     length 2.30343  
     axis -90 -7.62852e-016 -20   XYZ
    dof rx rz
    limits (-45.0 90.0)
           (-20.0 70.0)
  end
  begin
     id 10 
     name rtoes
     direction -1.53556e-011 -4.21922e-011 1   
     length 1.14803   
     axis -90 -7.62852e-016 -20   XYZ
    dof rx
    limits (-90.0 20.0)
  end
  begin
     id 11 
     name lowerback
     direction -0.0152855 0.99353 -0.11254   
     length 2.05311   
     axis 0 0 0   XYZ
    dof rx ry rz
    limits (-20.0 45.0)
           (-30.0 30.0)
           (-30.0 30.0)
  end
  begin
     id 12 
     name upperback
     direction -0.00157509 0.999443 -0.033332   
     length 2.06353   
     axis 0 0 0   XYZ
    dof rx ry rz
    limits (-20.0 45.0)
           (-30.0 30.0)
           (-30.0 30.0)
  end
  begin
     id 13 
     name thorax
     direction 0.00577788 0.999804 0.0189484   
     length 2.08472   
     axis 0 0 0   XYZ
    dof rx ry rz
    limits (-20.0 45.0)
           (-30.0 30.0)
           (-30.0 30.0)
  end
  begin
     id 14 
     name lowerneck
     direction -1.09301e-005 0.994719 0.10264   
     length 1.76249   
     axis 0 0 0   XYZ
    dof rx ry rz
    limits (-20.0 45.0)
           (-30.0 30.0)
           (-30.0 30.0)
  end
  begin
     id 15 
     name upperneck
     direction 0.0495018 0.988526 -0.142706   
     length 1.77897   
     axis 0 0 0   XYZ
    dof rx ry rz
    limits (-20.0 45.0)
           (-30.0 30.0)
           (-30.0 30.0)
  end
  begin
     id 16
     name head
     direction 0.0142736 0.998114 -0.0597101  
     length 1.78934  
     axis 0 0 0   XYZ
    dof rx ry rz
    limits (-20.0 45.0)
           (-30.0 30.0)
           (-30.0 30.0)
  end
  begin
     id 17 
     name lclavicle
     direction 0.918111 0.396107 -0.0130883  
     length 3.37276  
     axis 0 0 0   XYZ
    dof ry rz
    limits (-20.0 10.0)
           (0.0 20.0)
  end
  begin
     id 18 
     name lhumerus
     direction 1 -4.48975e-011 -3.26108e-027   
     length 5.34298   
     axis 180 -30 -90   XYZ
    dof rx ry rz
    limits (-60.0 90.0)
           (-90.0 90.0)
           (-90.0 90.0)
  end
  begin
     id 19
     name lradius
     direction 1 -4.48964e-011 -8.84413e-028   
     length 3.67262   
     axis 180 -30 -90   XYZ
    dof rx
    limits (-10.0 170.0)
  end
  begin
     id 20
     name lwrist
     direction 1 -4.48991e-011 -1.24264e-027   
     length 1.83631   
     axis -2.17013e-015 90 90   XYZ
    dof ry
    limits (-180.0 0.0)
 end
  begin
     id 21 
     name lhand
     direction 1 -4.48855e-011 -2.48528e-027   
     length 0.599298   
     axis 1.58582e-015 90 90   XYZ
    dof rx rz
    limits (-90.0 90.0)
           (-45.0 45.0)
  end
  begin
     id 22 
     name lfingers
     direction 1 -4.48811e-011 -4.97056e-027   
     length 0.48317   
     axis 3.17164e-015 90 90   XYZ
    dof rx
    limits (0.0 90.0)
  end
  begin
     id 23
     name lthumb
     direction 0.707107 -6.34882e-011 0.707107   
     length 0.693738   
     axis -90 45 2.85299e-015   XYZ
    dof rx rz
    limits (-45.0 45.0)
           (-45.0 45.0)
  end
  begin
     id 24 
     name rclavicle
     direction -0.920511 0.384752 -0.0680135   
     length 3.43787  
     axis 0 0 0   XYZ 
    dof ry rz
    limits (-10.0 20.0)
           (-20.0 0.0)
  end
  begin
     id 25 
     name rhumerus
     direction -0.999976 -0.00330524 0.00603274  
     length 5.5498   
     axis 180 30 90   XYZ
    dof rx ry rz
    limits (-90.0 60.0)
           (-90.0 90.0)
           (-90.0 90.0)
  end
  begin
     id 26 
     name rradius
     direction -1 -4.48967e-011 8.62438e-027   
     length 3.69401   
     axis 180 30 90   XYZ
    dof rx
    limits (-10.0 170.0)
  end
  begin
     id 27 
     name rwrist
     direction -1 -4.4897e-011 9.54866e-027   
     length 1.84701   
     axis -7.69462e-015 -90 -90   XYZ
    dof ry
    limits (-180.0 0.0)
  end
  begin
     id 28
     name rhand
     direction -1 -4.48982e-011 1.90973e-026   
     length 0.638113   
     axis -1.21857e-014 -90 -90   XYZ
    dof rx rz
    limits (-90.0 90.0)
           (-45.0 45.0)
  end
  begin
     id 29
     name rfingers
     direction -1 -4.48936e-011 3.81946e-026   
     length 0.514463   
     axis -2.43714e-014 -90 -90   XYZ
    dof rx
    limits (0.0 90.0)
  end
  begin
     id 30
     name rthumb
     direction -0.707107 -6.34942e-011 0.707107   
     length 0.738669   
     axis -90 -45 -2.85299e-015   XYZ
    dof rx rz
    limits (-45.0 45.0)
           (-45.0 45.0)
  end
:hierarchy
  begin
    root lhipjoint rhipjoint lowerback
    lhipjoint lfemur
    lfemur ltibia
    ltibia lfoot
    lfoot ltoes
    rhipjoint rfemur
    rfemur rtibia
    rtibia rfoot
    rfoot rtoes
    lowerback upperback
    upperback thorax
    thorax lowerneck lclavicle rclavicle
    lowerneck upperneck
    upperneck head
    lclavicle lhumerus
    lhumerus lradius
    lradius lwrist
    lwrist lhand lthumb
    lhand lfingers
    rclavicle rhumerus
    rhumerus rradius
    rradius rwrist
    rwrist rhand rthumb
    rhand rfingers
  end

#!OML:ASF F:\twosubjects\two\Thursday\Session 1\Rory.ASF
:FULLY-SPECIFIED
:DEGREES
1
root 24.0893 18.2957 -8.41554 3.63357 -1.72012 6.14497
lowerback 0.499802 -3.49022 -6.75793
upperback 1.9692 -4.58096 -2.13558
thorax 2.10973 -2.38152 1.49063
lowerneck 7.08589 -16.8506 -14.9607
upperneck 0.52718 -24.3684 22.512
head 3.70916 -12.4848 8.03684
rclavicle -2.80286e-014 -2.26615e-014
rhumerus -40.039 -14.5348 -81.689
rradius 23.4504
rwrist 32.4199
rhand -19.9186 23.1877
rfingers 7.12502
rthumb 6.41843 -6.69507
lclavicle -2.80286e-014 -2.26615e-014
lhumerus -30.9756 5.86679 76.4903
lradius 33.8513
lwrist -14.9778
lhand -9.12776 31.5679
lfingers 7.12502
lthumb 16.8235 60.8591
rfemur -28.9314 8.3555 13.1825
rtibia 23.6393
rfoot -1.54353 -4.7151
rtoes 0.717536
lfemur 20.9405 -0.174606 -27.2054
ltibia -1.27222e-014
lfoot 4.72593 -6.62541
ltoes -7.0798
2
root 24.0783 18.2988 -8.21838 3.11821 -1.47863 6.27246
lowerback 0.823952 -3.33919 -6.64364
upperback 2.15303 -4.39634 -2.34408
thorax 2.07819 -2.2885 1.23345
lowerneck 7.09078 -17.1565 -15.3682
upperneck 0.695535 -24.9189 23.1409
head 4.00516 -12.7556 8.17785
rclavicle 4.69629e-014 2.98177e-014
rhumerus -39.0968 -15.2961 -81.5999
rradius 23.1811
rwrist 32.6094
rhand -21.358 23.6853
rfingers 7.12502
rthumb 5.02872 -6.23499
lclavicle 4.69629e-014 2.98177e-014
lhumerus -30.4264 5.12804 76.7362
lradius 33.9459
lwrist -14.4328
lhand -11.5277 31.0758
lfingers 7.12502
lthumb 14.5121 60.5483
rfemur -28.505 8.53433 13.2524
rtibia 25.1824
rfoot -1.61758 -4.71948
rtoes 4.49259
lfemur 22.0744 -0.374797 -27.2654
ltibia 0
lfoot 6.08476 -6.8275
ltoes -10.0412
3
root 24.0624 18.3005 -8.0288 2.67659 -1.34602 5.90636
lowerback 0.879599 -3.50298 -6.28232
upperback 2.06734 -4.62763 -2.18829
thorax 1.9574 -2.39507 1.19748
lowerneck 7.83259 -16.8677 -15.9868
upperneck 0.923318 -24.696 23.2071
head 3.99505 -12.6891 8.38064
rclavicle -2.38045e-014 -3.57812e-015
rhumerus -38.4863 -14.6007 -81.6392
rradius 22.859
rwrist 32.4625
rhand -22.2163 24.0306
rfingers 7.12502
rthumb 4.19988 -5.90777
lclavicle -2.38045e-014 -3.57812e-015
lhumerus -30.8573 5.53405 76.7321
lradius 34.1725
lwrist -14.1233
lhand -16.1101 28.347
lfingers 7.12502
lthumb 10.094 58.0849
rfemur -27.7901 8.86274 13.9026
rtibia 26.1465
rfoot -1.56431 -5.02275
rtoes 4.92435
lfemur 19.5741 -0.475673 -26.7854
ltibia 7.05799
lfoot 3.8584 -7.78607
ltoes -16.6586
4
root 24.0469 18.3217 -7.83658 2.38216 -1.3261 5.18881
lowerback 0.985382 -3.1698 -5.37879
upperback 2.18412 -4.188 -2.26514
thorax 1.91398 -2.16161 0.635094
lowerneck 7.57829 -17.2325 -14.7683
upperneck 1.0876 -25.0546 22.729
head 3.93057 -12.8344 8.00912
rclavicle 4.09993e-014 -9.93923e-015
rhumerus -37.7519 -16.0035 -81.4073
rradius 22.5085
rwrist 33.0661
rhand -22.4133 23.6489
rfingers 7.12502
rthumb 4.00966 -6.29309
lclavicle 4.09993e-014 -9.93923e-015
lhumerus -30.3924 4.5209 76.8256
lradius 34.2372
lwrist -14.2015
lhand -12.3694 29.6052
lfingers 7.12502
lthumb 13.701 59.1342
rfemur -27.0816 8.97693 14.9921
rtibia 27.0124
rfoot -1.98707 -4.65989
rtoes 5.06549
lfemur 18.0043 -0.460686 -25.9784
ltibia 11.686
lfoot 3.85827 -7.86486
ltoes -16.4514
5
root 24.0249 18.3262 -7.6507 2.14013 -1.34104 4.21207
lowerback 1.09438 -3.47445 -4.70434
upperback 1.98846 -4.61828 -1.63188
thorax 1.66995 -2.36467 0.92032
lowerneck 7.98234 -16.7316 -15.6229
upperneck 1.32963 -24.4865 22.4261
head 3.89186 -12.573 8.14413
rclavicle -3.43152e-014 -6.16232e-015
rhumerus -37.0055 -15.798 -80.6778
rradius 21.8984
rwrist 33.9895
rhand -22.9496 23.3882
rfingers 7.12502
rthumb 3.4918 -6.56291
lclavicle -3.43152e-014 -6.16232e-015
lhumerus -31.0847 6.09017 76.9316
lradius 34.4693
lwrist -14.8318
lhand -11.1123 29.6148
lfingers 7.12502
lthumb 14.9123 59.058
rfemur -26.4038 9.26942 16.3314
rtibia 27.7171
rfoot -2.81523 -4.24038
rtoes 6.17518
lfemur 16.495 -0.686878 -24.8251
ltibia 15.7016
lfoot 5.32155 -7.23186
ltoes -8.33432
6
root 23.9996 18.3257 -7.47262 2.0143 -1.42677 3.4408
lowerback 0.856819 -3.54495 -4.15785
upperback 2.00872 -4.70285 -1.26097
thorax 1.814 -2.40467 0.979812
lowerneck 8.1535 -16.5595 -15.6809
upperneck 1.43867 -24.2534 22.0622
head 3.80757 -12.4622 8.09393
rclavicle 7.95139e-015 3.97569e-016
rhumerus -36.066 -16.1901 -80.2823
rradius 21.3915
rwrist 34.4086
rhand -24.2026 23.7811
rfingers 7.12502
rthumb 2.28165 -6.18646
lclavicle 7.95139e-015 3.97569e-016
lhumerus -31.1992 6.83488 77.1187
lradius 34.6656
lwrist -15.0195
lhand -10.7773 30.66
lfingers 7.12502
lthumb 15.235 60.079
rfemur -25.916 9.34446 17.4592
rtibia 28.3013
rfoot -3.68605 -4.1184
rtoes 8.51295
lfemur 15.0699 -0.59295 -23.7426
ltibia 19.1555
lfoot 7.19739 -6.891
ltoes -0.52273
7
root 23.9795 18.3319 -7.29507 1.86216 -1.41337 3.21127
lowerback 0.600884 -3.51702 -4.02126
upperback 2.1541 -4.64937 -1.17534
thorax 2.10064 -2.38263 0.968893
lowerneck 7.64412 -16.674 -15.3538
upperneck 2.09173 -24.3884 21.5288
head 3.99468 -12.472 7.80468
rclavicle -2.15433e-014 -1.27222e-014
rhumerus -34.8598 -16.9549 -80.0412
rradius 20.7948
rwrist 34.871
rhand -24.9295 23.7371
rfingers 7.12502
rthumb 1.57965 -6.23685
lclavicle -2.15433e-014 -1.27222e-014
lhumerus -30.9528 7.17769 77.3127
lradius 34.7846
lwrist -14.943
lhand -9.57363 33.3558
lfingers 7.12502
lthumb 16.3942 62.683
rfemur -25.4504 8.82585 18.0137
rtibia 28.9004
rfoot -4.55512 -3.92789
rtoes 10.5447
lfemur 13.7207 -0.132286 -23.1431
ltibia 22.4278
lfoot 8.13276 -7.25429
ltoes -1.22639
8
root 23.9665 18.3384 -7.12731 1.63018 -1.16213 3.16899
lowerback 0.760285 -3.5162 -3.99992
upperback 2.19182 -4.65569 -1.16058
thorax 2.04991 -2.38539 0.981444
lowerneck 7.21977 -16.7757 -15.1197
upperneck 2.71374 -24.5309 21.1239
head 4.1897 -12.4938 7.57443
rclavicle 6.69656e-014 4.96962e-015
rhumerus -33.9116 -18.4818 -79.4116
rradius 20.2272
rwrist 35.7893
rhand -25.3643 23.3607
rfingers 7.12502
rthumb 1.15977 -6.61588
lclavicle 6.69656e-014 4.96962e-015
lhumerus -30.7952 7.50811 77.4863
lradius 34.9711
lwrist -14.8578
lhand -10.8378 31.5212
lfingers 7.12502
lthumb 15.1768 60.9446
rfemur -24.8861 8.19701 18.2935
rtibia 29.461
rfoot -5.39032 -3.53021
rtoes 11.7654
lfemur 12.5173 0.185324 -22.7993
ltibia 25.5027
lfoot 9.50374 -7.48878
ltoes -4.36057
9
root 23.9485 18.3351 -6.96648 1.38336 -0.841504 3.28717
lowerback 1.03269 -3.47694 -4.13714
upperback 2.16851 -4.6165 -1.26031
thorax 1.87426 -2.36432 0.975688
lowerneck 7.19455 -16.8667 -15.0163
upperneck 3.09418 -24.6949 20.964
head 4.30225 -12.5599 7.47751
rclavicle -6.4605e-015 -1.39149e-015
rhumerus -33.2386 -20.4225 -78.7195
rradius 19.7432
rwrist 36.8962
rhand -26.0413 23.6758
rfingers 7.12502
rthumb 0.505897 -6.30337
lclavicle -6.4605e-015 -1.39149e-015
lhumerus -30.766 7.29671 77.6442
lradius 35.227
lwrist -14.4857
lhand -10.423 32.2344
lfingers 7.12502
lthumb 15.5763 61.6272
rfemur -24.1861 7.47056 18.4964
rtibia 29.9565
rfoot -6.01552 -3.21843
rtoes 8.93149
lfemur 11.3378 0.223631 -22.6541
ltibia 28.4203
lfoot 11.2163 -7.4122
ltoes -6.72563
10
root 23.9191 18.334 -6.80145 1.14168 -0.616138 3.24011
lowerback 1.16756 -3.40801 -4.21694
upperback 2.17921 -4.53058 -1.33068
thorax 1.80618 -2.32114 0.957808
lowerneck 7.0245 -16.9766 -14.7107
upperneck 3.60176 -24.8601 20.6417
head 4.42845 -12.6121 7.2912
rclavicle -4.90998e-014 -2.94201e-014
rhumerus -32.5608 -22.3476 -78.0744
rradius 19.3389
rwrist 38.5093
rhand -25.7519 22.5302
rfingers 7.12502
rthumb 0.785382 -7.44812
lclavicle -4.90998e-014 -2.94201e-014
lhumerus -30.7372 6.87636 77.7885
lradius 35.4412
lwrist -13.9915
lhand -9.96159 33.5075
lfingers 7.12502
lthumb 16.0206 62.8651
rfemur -23.3943 7.26711 18.8563
rtibia 30.3704
rfoot -6.49249 -3.46694
rtoes 3.76522
lfemur 10.1238 0.335183 -22.2348
ltibia 31.2401
lfoot 13.0162 -7.41536
ltoes -8.4553
11
root 23.8927 18.3465 -6.64144 0.980301 -0.437892 2.8272
lowerback 0.989714 -3.34005 -3.88214
upperback 2.35274 -4.42581 -1.304
thorax 2.05531 -2.26915 0.783243
lowerneck 6.71619 -17.0143 -14.0922
upperneck 3.85518 -24.8508 20.3642
head 4.43647 -12.5749 7.10211
rclavicle 1.2101e-014 1.66979e-014
rhumerus -31.7197 -23.9949 -77.7175
rradius 19.2486
rwrist 39.9293
rhand -24.9713 20.5884
rfingers 7.12502
rthumb 1.53933 -9.38574
lclavicle 1.2101e-014 1.66979e-014
lhumerus -30.3941 6.6749 77.9676
lradius 35.6085
lwrist -13.6234
lhand -9.79262 33.4574
lfingers 7.12502
lthumb 16.1833 62.8018
rfemur -22.7844 7.84927 19.3414
rtibia 30.6864
rfoot -7.3718 -3.90368
rtoes 7.95911
lfemur 8.79567 0.598685 -21.3978
ltibia 34.0006
lfoot 14.6912 -7.82449
ltoes -11.0733
